<svg width="64" height="64" viewBox="0 0 64 64" fill="none" xmlns="http://www.w3.org/2000/svg">
<path d="M23.3968 20.4309C26.879 23.2356 30.6251 28.9215 32 31.9728V40.032C32 39.8605 31.9383 40.0543 31.8054 40.472C31.0878 42.7331 28.2848 51.5581 21.8752 44.5031C18.5002 40.7886 20.0626 37.0741 26.206 35.9526C22.6915 36.5941 18.7404 35.534 17.6564 31.378C17.3441 30.1825 16.8125 22.8184 16.8125 21.8238C16.8125 16.8418 20.8842 18.4077 23.3968 20.4309ZM40.6032 20.4309C37.121 23.2356 33.3749 28.9215 32 31.9728V40.032C32 39.8605 32.0617 40.0543 32.1946 40.472C32.9122 42.7331 35.7152 51.5581 42.1248 44.5031C45.4998 40.7886 43.9374 37.0741 37.794 35.9526C41.3085 36.5941 45.2596 35.534 46.3436 31.378C46.6559 30.1825 47.1875 22.8184 47.1875 21.8238C47.1875 16.8418 43.1163 18.4077 40.6032 20.4309Z" fill="white"/>
<g filter="url(#filter0_d_39_195)">
<path d="M32 5C17.0887 5 5 17.0887 5 32C5 46.9113 17.0887 59 32 59C46.9113 59 59 46.9113 59 32C58.9817 17.096 46.9022 5.01831 32 5ZM32 56.2542C18.6043 56.2542 7.74576 45.3957 7.74576 32C7.74576 18.6043 18.6043 7.74576 32 7.74576C45.3957 7.74576 56.2542 18.6043 56.2542 32C56.2396 45.3883 45.3865 56.2396 32 56.2542Z" fill="white"/>
</g>
<defs>
<filter id="filter0_d_39_195" x="0.5" y="0.5" width="63" height="63" filterUnits="userSpaceOnUse" color-interpolation-filters="sRGB">
<feFlood flood-opacity="0" result="BackgroundImageFix"/>
<feColorMatrix in="SourceAlpha" type="matrix" values="0 0 0 0 0 0 0 0 0 0 0 0 0 0 0 0 0 0 127 0" result="hardAlpha"/>
<feOffset/>
<feGaussianBlur stdDeviation="2.25"/>
<feComposite in2="hardAlpha" operator="out"/>
<feColorMatrix type="matrix" values="0 0 0 0 0.886275 0 0 0 0 0.34902 0 0 0 0 1 0 0 0 1 0"/>
<feBlend mode="normal" in2="BackgroundImageFix" result="effect1_dropShadow_39_195"/>
<feBlend mode="normal" in="SourceGraphic" in2="effect1_dropShadow_39_195" result="shape"/>
</filter>
</defs>
</svg>
