<svg width="200" height="48" viewBox="0 0 200 48" fill="none" xmlns="http://www.w3.org/2000/svg">
<g filter="url(#filter0_d_35_172)">
<rect x="6" y="6" width="188" height="36" rx="15" stroke="#E259FF" stroke-width="2"/>
</g>
<path d="M66 31.18C65.0933 31.18 64.42 30.98 63.98 30.58C63.54 30.18 63.2467 29.64 63.1 28.96C62.9667 28.2667 62.9 27.4867 62.9 26.62V23.92C62.9 22.8533 62.9867 21.98 63.16 21.3C63.3333 20.6067 63.64 20.0933 64.08 19.76C64.5333 19.4267 65.1733 19.26 66 19.26C66.8133 19.26 67.4333 19.4133 67.86 19.72C68.2867 20.0267 68.5733 20.46 68.72 21.02C68.8667 21.58 68.94 22.2267 68.94 22.96V23.52H67.58V22.96C67.58 22.28 67.5267 21.7533 67.42 21.38C67.3267 21.0067 67.16 20.7467 66.92 20.6C66.6933 20.44 66.3867 20.36 66 20.36C65.5467 20.36 65.2 20.4667 64.96 20.68C64.72 20.8933 64.56 21.2467 64.48 21.74C64.4 22.22 64.36 22.8667 64.36 23.68V26.92C64.36 28.08 64.4733 28.9 64.7 29.38C64.9267 29.8467 65.3667 30.08 66.02 30.08C66.4733 30.08 66.8133 29.98 67.04 29.78C67.2667 29.5667 67.4133 29.2533 67.48 28.84C67.5467 28.4267 67.58 27.9133 67.58 27.3V26.66H68.94V27.22C68.94 27.9933 68.8667 28.68 68.72 29.28C68.5867 29.8667 68.3067 30.3333 67.88 30.68C67.4533 31.0133 66.8267 31.18 66 31.18ZM73.6167 31.18C72.8301 31.18 72.2101 31.0133 71.7567 30.68C71.3167 30.3333 71.0034 29.84 70.8167 29.2C70.6301 28.5467 70.5367 27.7533 70.5367 26.82V23.62C70.5367 22.6867 70.6301 21.9 70.8167 21.26C71.0034 20.6067 71.3167 20.1133 71.7567 19.78C72.2101 19.4333 72.8301 19.26 73.6167 19.26C74.4301 19.26 75.0567 19.4333 75.4967 19.78C75.9367 20.1133 76.2501 20.6067 76.4367 21.26C76.6234 21.9 76.7167 22.6867 76.7167 23.62V26.82C76.7167 27.7533 76.6234 28.5467 76.4367 29.2C76.2501 29.84 75.9367 30.3333 75.4967 30.68C75.0567 31.0133 74.4301 31.18 73.6167 31.18ZM73.6167 30.08C74.1234 30.08 74.4901 29.9467 74.7167 29.68C74.9567 29.4133 75.1034 29.04 75.1567 28.56C75.2101 28.0667 75.2367 27.5133 75.2367 26.9V23.54C75.2367 22.9133 75.2101 22.3667 75.1567 21.9C75.1034 21.42 74.9567 21.0467 74.7167 20.78C74.4901 20.5 74.1234 20.36 73.6167 20.36C73.1101 20.36 72.7434 20.5 72.5167 20.78C72.2901 21.0467 72.1501 21.42 72.0967 21.9C72.0434 22.3667 72.0167 22.9133 72.0167 23.54V26.9C72.0167 27.5133 72.0434 28.0667 72.0967 28.56C72.1501 29.04 72.2901 29.4133 72.5167 29.68C72.7434 29.9467 73.1101 30.08 73.6167 30.08ZM78.745 31V19.44H80.205V20.64C80.5783 20.24 80.9983 19.9133 81.465 19.66C81.9317 19.3933 82.4383 19.26 82.985 19.26C83.3717 19.26 83.6983 19.36 83.965 19.56C84.2317 19.7467 84.4317 20.0267 84.565 20.4C84.6983 20.76 84.765 21.2 84.765 21.72V31H83.305V22.04C83.305 21.44 83.2117 21.02 83.025 20.78C82.8517 20.5267 82.5783 20.4 82.205 20.4C81.8717 20.4 81.5317 20.5 81.185 20.7C80.8383 20.9 80.5117 21.16 80.205 21.48V31H78.745ZM89.6686 31.14C89.1086 31.14 88.6753 31.0333 88.3686 30.82C88.0753 30.5933 87.8686 30.2933 87.7486 29.92C87.6419 29.5333 87.5886 29.0933 87.5886 28.6V20.4H86.1686V19.44H87.5886V15.86H89.0486V19.44H90.9686V20.4H89.0486V28.46C89.0486 29.02 89.1086 29.42 89.2286 29.66C89.3619 29.8867 89.6419 30 90.0686 30C90.1886 30 90.3219 29.9933 90.4686 29.98C90.6286 29.9533 90.7753 29.9267 90.9086 29.9V31.02C90.7086 31.06 90.5019 31.0867 90.2886 31.1C90.0753 31.1267 89.8686 31.14 89.6686 31.14ZM94.2941 31.18C93.8407 31.18 93.4407 31.0667 93.0941 30.84C92.7474 30.6 92.4741 30.2867 92.2741 29.9C92.0741 29.5 91.9741 29.0667 91.9741 28.6C91.9741 28.0133 92.0607 27.5133 92.2341 27.1C92.4074 26.6867 92.6741 26.32 93.0341 26C93.3941 25.6667 93.8741 25.3467 94.4741 25.04C95.0741 24.72 95.7941 24.3667 96.6341 23.98V23.16C96.6341 22.4533 96.5941 21.9 96.5141 21.5C96.4341 21.0867 96.2874 20.7933 96.0741 20.62C95.8741 20.4467 95.5807 20.36 95.1941 20.36C94.9007 20.36 94.6274 20.42 94.3741 20.54C94.1341 20.66 93.9407 20.8667 93.7941 21.16C93.6607 21.44 93.5941 21.8333 93.5941 22.34V22.74L92.1541 22.72C92.1674 21.5467 92.4141 20.68 92.8941 20.12C93.3874 19.5467 94.1807 19.26 95.2741 19.26C96.3141 19.26 97.0407 19.5733 97.4541 20.2C97.8807 20.8133 98.0941 21.7733 98.0941 23.08V28.7C98.0941 28.9 98.1007 29.16 98.1141 29.48C98.1274 29.7867 98.1407 30.08 98.1541 30.36C98.1807 30.64 98.2007 30.8533 98.2141 31H96.9141C96.8741 30.7467 96.8274 30.4667 96.7741 30.16C96.7341 29.84 96.7074 29.5867 96.6941 29.4C96.5341 29.8667 96.2474 30.28 95.8341 30.64C95.4207 31 94.9074 31.18 94.2941 31.18ZM94.7741 29.94C95.0674 29.94 95.3274 29.8667 95.5541 29.72C95.7941 29.5733 96.0074 29.4 96.1941 29.2C96.3807 28.9867 96.5274 28.7733 96.6341 28.56V24.96C96.0741 25.2533 95.5874 25.52 95.1741 25.76C94.7741 26 94.4474 26.2333 94.1941 26.46C93.9407 26.6867 93.7474 26.9467 93.6141 27.24C93.4941 27.52 93.4341 27.8533 93.4341 28.24C93.4341 28.8533 93.5674 29.2933 93.8341 29.56C94.1007 29.8133 94.4141 29.94 94.7741 29.94ZM103.109 31.18C102.203 31.18 101.529 30.98 101.089 30.58C100.649 30.18 100.356 29.64 100.209 28.96C100.076 28.2667 100.009 27.4867 100.009 26.62V23.92C100.009 22.8533 100.096 21.98 100.269 21.3C100.443 20.6067 100.749 20.0933 101.189 19.76C101.643 19.4267 102.283 19.26 103.109 19.26C103.923 19.26 104.543 19.4133 104.969 19.72C105.396 20.0267 105.683 20.46 105.829 21.02C105.976 21.58 106.049 22.2267 106.049 22.96V23.52H104.689V22.96C104.689 22.28 104.636 21.7533 104.529 21.38C104.436 21.0067 104.269 20.7467 104.029 20.6C103.803 20.44 103.496 20.36 103.109 20.36C102.656 20.36 102.309 20.4667 102.069 20.68C101.829 20.8933 101.669 21.2467 101.589 21.74C101.509 22.22 101.469 22.8667 101.469 23.68V26.92C101.469 28.08 101.583 28.9 101.809 29.38C102.036 29.8467 102.476 30.08 103.129 30.08C103.583 30.08 103.923 29.98 104.149 29.78C104.376 29.5667 104.523 29.2533 104.589 28.84C104.656 28.4267 104.689 27.9133 104.689 27.3V26.66H106.049V27.22C106.049 27.9933 105.976 28.68 105.829 29.28C105.696 29.8667 105.416 30.3333 104.989 30.68C104.563 31.0133 103.936 31.18 103.109 31.18ZM110.743 31.14C110.183 31.14 109.749 31.0333 109.443 30.82C109.149 30.5933 108.943 30.2933 108.823 29.92C108.716 29.5333 108.663 29.0933 108.663 28.6V20.4H107.243V19.44H108.663V15.86H110.123V19.44H112.043V20.4H110.123V28.46C110.123 29.02 110.183 29.42 110.303 29.66C110.436 29.8867 110.716 30 111.143 30C111.263 30 111.396 29.9933 111.543 29.98C111.703 29.9533 111.849 29.9267 111.983 29.9V31.02C111.783 31.06 111.576 31.0867 111.363 31.1C111.149 31.1267 110.943 31.14 110.743 31.14ZM117.69 31V19.44H119.05V20.62C119.437 20.1667 119.864 19.8267 120.33 19.6C120.797 19.36 121.277 19.24 121.77 19.24C122.17 19.24 122.537 19.3467 122.87 19.56C123.217 19.7733 123.464 20.1667 123.61 20.74C124.01 20.2467 124.45 19.8733 124.93 19.62C125.41 19.3667 125.917 19.24 126.45 19.24C126.784 19.24 127.097 19.32 127.39 19.48C127.697 19.64 127.944 19.9133 128.13 20.3C128.317 20.6867 128.41 21.2133 128.41 21.88V31H127.05V21.92C127.05 21.24 126.937 20.7933 126.71 20.58C126.497 20.3533 126.224 20.24 125.89 20.24C125.517 20.24 125.144 20.3467 124.77 20.56C124.397 20.7733 124.044 21.0667 123.71 21.44C123.724 21.5067 123.73 21.58 123.73 21.66C123.744 21.7267 123.75 21.8 123.75 21.88V31H122.37V21.92C122.37 21.24 122.257 20.7933 122.03 20.58C121.817 20.3533 121.544 20.24 121.21 20.24C120.85 20.24 120.484 20.3467 120.11 20.56C119.737 20.7733 119.384 21.06 119.05 21.42V31H117.69ZM133.461 31.18C132.741 31.18 132.148 31.04 131.681 30.76C131.228 30.4667 130.888 29.9867 130.661 29.32C130.448 28.6533 130.341 27.7667 130.341 26.66V23.74C130.341 22.5933 130.455 21.7 130.681 21.06C130.908 20.4067 131.255 19.9467 131.721 19.68C132.188 19.4 132.775 19.26 133.481 19.26C134.295 19.26 134.915 19.4333 135.341 19.78C135.768 20.1267 136.061 20.6533 136.221 21.36C136.395 22.0533 136.481 22.9467 136.481 24.04V25.08H131.801V27.1C131.801 27.8467 131.855 28.44 131.961 28.88C132.081 29.3067 132.261 29.6133 132.501 29.8C132.755 29.9867 133.075 30.08 133.461 30.08C133.755 30.08 134.021 30.0267 134.261 29.92C134.501 29.8 134.688 29.58 134.821 29.26C134.968 28.9267 135.041 28.46 135.041 27.86V27.06H136.461V27.7C136.461 28.7533 136.241 29.6 135.801 30.24C135.375 30.8667 134.595 31.18 133.461 31.18ZM131.801 24.24H135.041V23.28C135.041 22.6667 135.008 22.1467 134.941 21.72C134.875 21.28 134.728 20.9467 134.501 20.72C134.288 20.48 133.941 20.36 133.461 20.36C133.061 20.36 132.735 20.4467 132.481 20.62C132.241 20.7933 132.068 21.1067 131.961 21.56C131.855 22 131.801 22.6333 131.801 23.46V24.24Z" fill="#E259FF"/>
<defs>
<filter id="filter0_d_35_172" x="0" y="0" width="200" height="48" filterUnits="userSpaceOnUse" color-interpolation-filters="sRGB">
<feFlood flood-opacity="0" result="BackgroundImageFix"/>
<feColorMatrix in="SourceAlpha" type="matrix" values="0 0 0 0 0 0 0 0 0 0 0 0 0 0 0 0 0 0 127 0" result="hardAlpha"/>
<feMorphology radius="1" operator="dilate" in="SourceAlpha" result="effect1_dropShadow_35_172"/>
<feOffset/>
<feGaussianBlur stdDeviation="2"/>
<feColorMatrix type="matrix" values="0 0 0 0 0.886275 0 0 0 0 0.34902 0 0 0 0 1 0 0 0 1 0"/>
<feBlend mode="normal" in2="BackgroundImageFix" result="effect1_dropShadow_35_172"/>
<feBlend mode="normal" in="SourceGraphic" in2="effect1_dropShadow_35_172" result="shape"/>
</filter>
</defs>
</svg>
