<svg width="64" height="64" viewBox="0 0 64 64" fill="none" xmlns="http://www.w3.org/2000/svg">
<path d="M32.0011 19.9613C35.9218 19.9613 36.3868 19.976 37.9348 20.047C39.5353 20.1204 41.1836 20.4851 42.3498 21.6512C43.527 22.8284 43.8806 24.4608 43.9541 26.0663C44.025 27.6143 44.0397 28.0793 44.0397 31.9999C44.0397 35.9206 44.025 36.3856 43.9541 37.9336C43.8819 39.5256 43.5086 41.1898 42.3498 42.3486C41.1726 43.5258 39.5415 43.8795 37.9348 43.9529C36.3868 44.0239 35.9218 44.0386 32.0011 44.0386C28.0804 44.0386 27.6154 44.0239 26.0675 43.9529C24.4877 43.8807 22.8014 43.4989 21.6524 42.3486C20.4813 41.1776 20.1216 39.5293 20.0482 37.9336C19.9772 36.3856 19.9625 35.9206 19.9625 31.9999C19.9625 28.0793 19.9772 27.6143 20.0482 26.0663C20.1204 24.4804 20.4973 22.8064 21.6524 21.6512C22.8271 20.4765 24.4657 20.1204 26.0675 20.047C27.6154 19.976 28.0804 19.9613 32.0011 19.9613ZM32.0011 17.3157C28.0131 17.3157 27.5126 17.3329 25.9463 17.4038C23.6764 17.5079 21.4224 18.1393 19.7814 19.7802C18.1343 21.4273 17.509 23.6764 17.405 25.9452C17.334 27.5115 17.3169 28.012 17.3169 31.9999C17.3169 35.9879 17.334 36.4884 17.405 38.0547C17.509 40.3222 18.1429 42.5824 19.7814 44.2197C21.4273 45.8655 23.6801 46.492 25.9463 46.5961C27.5126 46.667 28.0131 46.6842 32.0011 46.6842C35.9891 46.6842 36.4896 46.667 38.0559 46.5961C40.3246 46.492 42.5811 45.8594 44.2208 44.2197C45.8691 42.5714 46.4932 40.3234 46.5972 38.0547C46.6682 36.4884 46.6853 35.9879 46.6853 31.9999C46.6853 28.012 46.6682 27.5115 46.5972 25.9452C46.4932 23.6752 45.8606 21.42 44.2208 19.7802C42.5774 18.1368 40.3185 17.5066 38.0559 17.4038C36.4896 17.3329 35.9891 17.3157 32.0011 17.3157Z" fill="#E259FF"/>
<path d="M32.0003 24.4596C27.8361 24.4596 24.46 27.8357 24.46 31.9999C24.46 36.1641 27.8361 39.5403 32.0003 39.5403C36.1645 39.5403 39.5406 36.1641 39.5406 31.9999C39.5406 27.8357 36.1645 24.4596 32.0003 24.4596ZM32.0003 36.8947C29.2972 36.8947 27.1056 34.7031 27.1056 31.9999C27.1056 29.2968 29.2972 27.1052 32.0003 27.1052C34.7034 27.1052 36.895 29.2968 36.895 31.9999C36.895 34.7031 34.7034 36.8947 32.0003 36.8947Z" fill="#E259FF"/>
<path d="M39.8397 25.9231C40.8129 25.9231 41.6018 25.1342 41.6018 24.161C41.6018 23.1878 40.8129 22.3989 39.8397 22.3989C38.8666 22.3989 38.0776 23.1878 38.0776 24.161C38.0776 25.1342 38.8666 25.9231 39.8397 25.9231Z" fill="#E259FF"/>
<g filter="url(#filter0_d_24_128)">
<path d="M32 5C17.0887 5 5 17.0887 5 32C5 46.9113 17.0887 59 32 59C46.9113 59 59 46.9113 59 32C58.9817 17.096 46.9022 5.01831 32 5ZM32 56.2542C18.6043 56.2542 7.74576 45.3957 7.74576 32C7.74576 18.6043 18.6043 7.74576 32 7.74576C45.3957 7.74576 56.2542 18.6043 56.2542 32C56.2396 45.3883 45.3865 56.2396 32 56.2542Z" fill="#E259FF"/>
</g>
<defs>
<filter id="filter0_d_24_128" x="0.5" y="0.5" width="63" height="63" filterUnits="userSpaceOnUse" color-interpolation-filters="sRGB">
<feFlood flood-opacity="0" result="BackgroundImageFix"/>
<feColorMatrix in="SourceAlpha" type="matrix" values="0 0 0 0 0 0 0 0 0 0 0 0 0 0 0 0 0 0 127 0" result="hardAlpha"/>
<feOffset/>
<feGaussianBlur stdDeviation="2.25"/>
<feComposite in2="hardAlpha" operator="out"/>
<feColorMatrix type="matrix" values="0 0 0 0 0.886275 0 0 0 0 0.34902 0 0 0 0 1 0 0 0 1 0"/>
<feBlend mode="normal" in2="BackgroundImageFix" result="effect1_dropShadow_24_128"/>
<feBlend mode="normal" in="SourceGraphic" in2="effect1_dropShadow_24_128" result="shape"/>
</filter>
</defs>
</svg>
