<svg width="200" height="48" viewBox="0 0 200 48" fill="none" xmlns="http://www.w3.org/2000/svg">
<g filter="url(#filter0_d_35_173)">
<rect x="6" y="6" width="188" height="36" rx="15" stroke="#E259FF" stroke-width="2"/>
</g>
<path d="M63.86 31.4905C63.3 31.4905 62.8667 31.3838 62.56 31.1705C62.2667 30.9438 62.06 30.6438 61.94 30.2705C61.8333 29.8838 61.78 29.4438 61.78 28.9505V20.7505H60.36V19.7905H61.78V16.2105H63.24V19.7905H65.16V20.7505H63.24V28.8105C63.24 29.3705 63.3 29.7705 63.42 30.0105C63.5533 30.2371 63.8333 30.3505 64.26 30.3505C64.38 30.3505 64.5133 30.3438 64.66 30.3305C64.82 30.3038 64.9667 30.2771 65.1 30.2505V31.3705C64.9 31.4105 64.6933 31.4371 64.48 31.4505C64.2667 31.4771 64.06 31.4905 63.86 31.4905ZM66.8855 31.3505V19.7905H68.3455V31.3505H66.8855ZM66.8855 18.1905V16.2105H68.3455V18.1905H66.8855ZM70.8075 35.1505V19.7905H72.2675V20.7505C72.5075 20.4571 72.8075 20.1971 73.1675 19.9705C73.5275 19.7305 73.9675 19.6105 74.4875 19.6105C75.0475 19.6105 75.4942 19.7438 75.8275 20.0105C76.1742 20.2638 76.4408 20.6105 76.6275 21.0505C76.8142 21.4905 76.9408 21.9838 77.0075 22.5305C77.0742 23.0771 77.1075 23.6371 77.1075 24.2105V26.6505C77.1075 27.6371 77.0275 28.4971 76.8675 29.2305C76.7075 29.9505 76.4208 30.5171 76.0075 30.9305C75.6075 31.3305 75.0475 31.5305 74.3275 31.5305C73.8608 31.5305 73.4542 31.4105 73.1075 31.1705C72.7742 30.9305 72.4942 30.6838 72.2675 30.4305V35.1505H70.8075ZM74.1075 30.3705C74.5475 30.3705 74.8742 30.2305 75.0875 29.9505C75.3142 29.6705 75.4608 29.2571 75.5275 28.7105C75.6075 28.1505 75.6475 27.4771 75.6475 26.6905V24.2105C75.6475 23.4638 75.6075 22.8371 75.5275 22.3305C75.4608 21.8105 75.3142 21.4171 75.0875 21.1505C74.8608 20.8838 74.5208 20.7505 74.0675 20.7505C73.6942 20.7505 73.3475 20.8505 73.0275 21.0505C72.7208 21.2505 72.4675 21.4505 72.2675 21.6505V29.5305C72.4808 29.7571 72.7408 29.9571 73.0475 30.1305C73.3675 30.2905 73.7208 30.3705 74.1075 30.3705ZM85.8694 31.5305C84.9494 31.5305 84.216 31.2371 83.6694 30.6505C83.1227 30.0505 82.8094 29.2505 82.7294 28.2505L83.9494 27.8705C84.0294 28.7638 84.236 29.4171 84.5694 29.8305C84.9027 30.2305 85.3694 30.4305 85.9694 30.4305C86.476 30.4305 86.8627 30.2905 87.1294 30.0105C87.4094 29.7171 87.5494 29.3105 87.5494 28.7905C87.5494 28.4171 87.436 28.0438 87.2094 27.6705C86.9827 27.2838 86.6294 26.8838 86.1494 26.4705L84.5694 25.1105C84.0494 24.6705 83.656 24.2305 83.3894 23.7905C83.1227 23.3505 82.9894 22.8238 82.9894 22.2105C82.9894 21.6505 83.1027 21.1838 83.3294 20.8105C83.5694 20.4238 83.896 20.1305 84.3094 19.9305C84.7227 19.7171 85.2027 19.6105 85.7494 19.6105C86.6427 19.6105 87.316 19.8971 87.7694 20.4705C88.236 21.0305 88.4894 21.7571 88.5294 22.6505L87.4894 22.9905C87.4494 22.4705 87.3627 22.0438 87.2294 21.7105C87.096 21.3638 86.9094 21.1105 86.6694 20.9505C86.4294 20.7905 86.1427 20.7105 85.8094 20.7105C85.3694 20.7105 85.0094 20.8371 84.7294 21.0905C84.4627 21.3305 84.3294 21.6705 84.3294 22.1105C84.3294 22.4571 84.396 22.7638 84.5294 23.0305C84.6627 23.2971 84.9094 23.5971 85.2694 23.9305L86.9094 25.3905C87.2294 25.6705 87.536 25.9705 87.8294 26.2905C88.1227 26.6105 88.3627 26.9705 88.5494 27.3705C88.736 27.7571 88.8294 28.2171 88.8294 28.7505C88.8294 29.3505 88.7027 29.8571 88.4494 30.2705C88.2094 30.6705 87.8694 30.9838 87.4294 31.2105C86.9894 31.4238 86.4694 31.5305 85.8694 31.5305ZM92.195 31.5305C91.8083 31.5305 91.4817 31.4305 91.215 31.2305C90.9483 31.0305 90.7417 30.7505 90.595 30.3905C90.4617 30.0305 90.395 29.5905 90.395 29.0705V19.7905H91.875V28.7505C91.875 29.3505 91.9617 29.7705 92.135 30.0105C92.3217 30.2505 92.6017 30.3705 92.975 30.3705C93.3217 30.3705 93.6683 30.2638 94.015 30.0505C94.375 29.8371 94.7083 29.5638 95.015 29.2305V19.7905H96.475V31.3505H95.015V30.0705C94.6417 30.4971 94.215 30.8505 93.735 31.1305C93.255 31.3971 92.7417 31.5305 92.195 31.5305ZM98.7372 35.1505V19.7905H100.197V20.7505C100.437 20.4571 100.737 20.1971 101.097 19.9705C101.457 19.7305 101.897 19.6105 102.417 19.6105C102.977 19.6105 103.424 19.7438 103.757 20.0105C104.104 20.2638 104.371 20.6105 104.557 21.0505C104.744 21.4905 104.871 21.9838 104.937 22.5305C105.004 23.0771 105.037 23.6371 105.037 24.2105V26.6505C105.037 27.6371 104.957 28.4971 104.797 29.2305C104.637 29.9505 104.351 30.5171 103.937 30.9305C103.537 31.3305 102.977 31.5305 102.257 31.5305C101.791 31.5305 101.384 31.4105 101.037 31.1705C100.704 30.9305 100.424 30.6838 100.197 30.4305V35.1505H98.7372ZM102.037 30.3705C102.477 30.3705 102.804 30.2305 103.017 29.9505C103.244 29.6705 103.391 29.2571 103.457 28.7105C103.537 28.1505 103.577 27.4771 103.577 26.6905V24.2105C103.577 23.4638 103.537 22.8371 103.457 22.3305C103.391 21.8105 103.244 21.4171 103.017 21.1505C102.791 20.8838 102.451 20.7505 101.997 20.7505C101.624 20.7505 101.277 20.8505 100.957 21.0505C100.651 21.2505 100.397 21.4505 100.197 21.6505V29.5305C100.411 29.7571 100.671 29.9571 100.977 30.1305C101.297 30.2905 101.651 30.3705 102.037 30.3705ZM107.077 35.1505V19.7905H108.537V20.7505C108.777 20.4571 109.077 20.1971 109.437 19.9705C109.797 19.7305 110.237 19.6105 110.757 19.6105C111.317 19.6105 111.764 19.7438 112.097 20.0105C112.444 20.2638 112.71 20.6105 112.897 21.0505C113.084 21.4905 113.21 21.9838 113.277 22.5305C113.344 23.0771 113.377 23.6371 113.377 24.2105V26.6505C113.377 27.6371 113.297 28.4971 113.137 29.2305C112.977 29.9505 112.69 30.5171 112.277 30.9305C111.877 31.3305 111.317 31.5305 110.597 31.5305C110.13 31.5305 109.724 31.4105 109.377 31.1705C109.044 30.9305 108.764 30.6838 108.537 30.4305V35.1505H107.077ZM110.377 30.3705C110.817 30.3705 111.144 30.2305 111.357 29.9505C111.584 29.6705 111.73 29.2571 111.797 28.7105C111.877 28.1505 111.917 27.4771 111.917 26.6905V24.2105C111.917 23.4638 111.877 22.8371 111.797 22.3305C111.73 21.8105 111.584 21.4171 111.357 21.1505C111.13 20.8838 110.79 20.7505 110.337 20.7505C109.964 20.7505 109.617 20.8505 109.297 21.0505C108.99 21.2505 108.737 21.4505 108.537 21.6505V29.5305C108.75 29.7571 109.01 29.9571 109.317 30.1305C109.637 30.2905 109.99 30.3705 110.377 30.3705ZM118.277 31.5305C117.49 31.5305 116.87 31.3638 116.417 31.0305C115.977 30.6838 115.664 30.1905 115.477 29.5505C115.29 28.8971 115.197 28.1038 115.197 27.1705V23.9705C115.197 23.0371 115.29 22.2505 115.477 21.6105C115.664 20.9571 115.977 20.4638 116.417 20.1305C116.87 19.7838 117.49 19.6105 118.277 19.6105C119.09 19.6105 119.717 19.7838 120.157 20.1305C120.597 20.4638 120.91 20.9571 121.097 21.6105C121.284 22.2505 121.377 23.0371 121.377 23.9705V27.1705C121.377 28.1038 121.284 28.8971 121.097 29.5505C120.91 30.1905 120.597 30.6838 120.157 31.0305C119.717 31.3638 119.09 31.5305 118.277 31.5305ZM118.277 30.4305C118.784 30.4305 119.15 30.2971 119.377 30.0305C119.617 29.7638 119.764 29.3905 119.817 28.9105C119.87 28.4171 119.897 27.8638 119.897 27.2505V23.8905C119.897 23.2638 119.87 22.7171 119.817 22.2505C119.764 21.7705 119.617 21.3971 119.377 21.1305C119.15 20.8505 118.784 20.7105 118.277 20.7105C117.77 20.7105 117.404 20.8505 117.177 21.1305C116.95 21.3971 116.81 21.7705 116.757 22.2505C116.704 22.7171 116.677 23.2638 116.677 23.8905V27.2505C116.677 27.8638 116.704 28.4171 116.757 28.9105C116.81 29.3905 116.95 29.7638 117.177 30.0305C117.404 30.2971 117.77 30.4305 118.277 30.4305ZM123.505 31.3505V19.7905H124.985V21.3705C125.358 20.7571 125.785 20.3238 126.265 20.0705C126.745 19.8038 127.205 19.6705 127.645 19.6705C127.685 19.6705 127.725 19.6705 127.765 19.6705C127.805 19.6705 127.852 19.6771 127.905 19.6905V21.2505C127.812 21.2105 127.698 21.1838 127.565 21.1705C127.432 21.1438 127.305 21.1305 127.185 21.1305C126.732 21.1305 126.318 21.2371 125.945 21.4505C125.585 21.6638 125.265 22.0038 124.985 22.4705V31.3505H123.505ZM132.102 31.4905C131.542 31.4905 131.109 31.3838 130.802 31.1705C130.509 30.9438 130.302 30.6438 130.182 30.2705C130.076 29.8838 130.022 29.4438 130.022 28.9505V20.7505H128.602V19.7905H130.022V16.2105H131.482V19.7905H133.402V20.7505H131.482V28.8105C131.482 29.3705 131.542 29.7705 131.662 30.0105C131.796 30.2371 132.076 30.3505 132.502 30.3505C132.622 30.3505 132.756 30.3438 132.902 30.3305C133.062 30.3038 133.209 30.2771 133.342 30.2505V31.3705C133.142 31.4105 132.936 31.4371 132.722 31.4505C132.509 31.4771 132.302 31.4905 132.102 31.4905Z" fill="#E259FF"/>
<defs>
<filter id="filter0_d_35_173" x="0" y="0" width="200" height="48.0001" filterUnits="userSpaceOnUse" color-interpolation-filters="sRGB">
<feFlood flood-opacity="0" result="BackgroundImageFix"/>
<feColorMatrix in="SourceAlpha" type="matrix" values="0 0 0 0 0 0 0 0 0 0 0 0 0 0 0 0 0 0 127 0" result="hardAlpha"/>
<feMorphology radius="1" operator="dilate" in="SourceAlpha" result="effect1_dropShadow_35_173"/>
<feOffset/>
<feGaussianBlur stdDeviation="2"/>
<feColorMatrix type="matrix" values="0 0 0 0 0.886275 0 0 0 0 0.34902 0 0 0 0 1 0 0 0 1 0"/>
<feBlend mode="normal" in2="BackgroundImageFix" result="effect1_dropShadow_35_173"/>
<feBlend mode="normal" in="SourceGraphic" in2="effect1_dropShadow_35_173" result="shape"/>
</filter>
</defs>
</svg>
