<svg width="64" height="64" viewBox="0 0 64 64" fill="none" xmlns="http://www.w3.org/2000/svg">
<g clip-path="url(#clip0_39_204)">
<path fill-rule="evenodd" clip-rule="evenodd" d="M19.6864 18L17.6714 23.1487V44.1937H24.8351V48H28.8651L32.6714 44.1937H38.4926L46.3289 36.3575V18L19.6864 18ZM43.6414 35.015L39.1639 39.4925H32.0001L28.1939 43.2988V39.4925H22.1489V20.6862H43.6414V35.015ZM39.1639 25.8363V33.6638H36.4776V25.8363H39.1639ZM32.0001 25.8363V33.6638H29.3139V25.8363H32.0001Z" fill="white"/>
</g>
<g filter="url(#filter0_d_39_204)">
<path d="M32 5C17.0887 5 5 17.0887 5 32C5 46.9113 17.0887 59 32 59C46.9113 59 59 46.9113 59 32C58.9817 17.096 46.9022 5.01831 32 5ZM32 56.2542C18.6043 56.2542 7.74576 45.3957 7.74576 32C7.74576 18.6043 18.6043 7.74576 32 7.74576C45.3957 7.74576 56.2542 18.6043 56.2542 32C56.2396 45.3883 45.3865 56.2396 32 56.2542Z" fill="white"/>
</g>
<defs>
<filter id="filter0_d_39_204" x="0.5" y="0.5" width="63" height="63" filterUnits="userSpaceOnUse" color-interpolation-filters="sRGB">
<feFlood flood-opacity="0" result="BackgroundImageFix"/>
<feColorMatrix in="SourceAlpha" type="matrix" values="0 0 0 0 0 0 0 0 0 0 0 0 0 0 0 0 0 0 127 0" result="hardAlpha"/>
<feOffset/>
<feGaussianBlur stdDeviation="2.25"/>
<feComposite in2="hardAlpha" operator="out"/>
<feColorMatrix type="matrix" values="0 0 0 0 0.886275 0 0 0 0 0.34902 0 0 0 0 1 0 0 0 1 0"/>
<feBlend mode="normal" in2="BackgroundImageFix" result="effect1_dropShadow_39_204"/>
<feBlend mode="normal" in="SourceGraphic" in2="effect1_dropShadow_39_204" result="shape"/>
</filter>
<clipPath id="clip0_39_204">
<rect width="30" height="30" fill="white" transform="translate(17 18)"/>
</clipPath>
</defs>
</svg>
