<svg width="64" height="64" viewBox="0 0 64 64" fill="none" xmlns="http://www.w3.org/2000/svg">
<path d="M47.4077 36.7243C46.6729 35.9613 45.8378 35.2775 45.0302 34.6162C44.7431 34.381 44.4462 34.1378 44.16 33.896C43.3383 33.2011 43.3084 32.94 43.9589 32.1507C44.409 31.6066 44.8862 31.0618 45.3478 30.5349C45.7664 30.0568 46.1993 29.5625 46.6142 29.0665L46.6993 28.9645C47.4923 28.0154 48.3124 27.0341 48.7489 25.8502C48.8622 25.5378 48.9812 25.0782 48.7091 24.6938C48.4372 24.3098 47.9097 24.1927 47.5365 24.1379C47.352 24.1109 47.1687 24.1072 46.9986 24.1072L41.8055 24.1039L41.7625 24.1036C40.9774 24.1036 40.4482 24.4237 40.145 25.0822C39.8555 25.7114 39.5375 26.3814 39.1747 27.0185C38.4526 28.2871 37.5355 29.7482 36.2084 30.9668L36.1523 31.0186C35.9956 31.1643 35.8181 31.3293 35.6883 31.3293C35.6684 31.3293 35.6468 31.326 35.6223 31.3193C35.3474 31.2266 35.1629 30.6511 35.1712 30.3833C35.1713 30.3796 35.1714 30.3759 35.1714 30.3722L35.1678 25.1804C35.1678 25.1624 35.1663 25.1446 35.1636 25.1267C35.0315 24.2827 34.7389 23.7574 33.6332 23.5701C33.6039 23.565 33.5738 23.5625 33.5439 23.5625H28.1441C27.2644 23.5625 26.7796 23.8718 26.324 24.3347C26.201 24.4585 25.945 24.7161 26.0719 25.0286C26.2006 25.3458 26.6186 25.4136 26.7547 25.4356C27.4302 25.5468 27.811 25.9042 27.9189 26.5288C28.1072 27.6133 28.1303 28.7708 27.9917 30.1717C27.953 30.561 27.8766 30.8617 27.7506 31.1186C27.7214 31.1785 27.6176 31.3742 27.5118 31.3743C27.4781 31.3743 27.3809 31.3629 27.2037 31.2573C26.7848 31.009 26.4784 30.6548 26.1211 30.2173C24.9056 28.7314 23.8855 27.0946 23.002 25.2121C22.6744 24.5191 22.0625 24.1311 21.2782 24.1197C20.4165 24.1084 19.6352 24.1029 18.8901 24.1029C18.0759 24.1029 17.3211 24.1094 16.5841 24.1227C15.9531 24.1323 15.5167 24.2959 15.287 24.6093C15.057 24.9229 15.072 25.3349 15.3315 25.8336C17.4093 29.8292 19.2932 32.7343 21.44 35.2536C22.9443 37.0165 24.4532 38.2367 26.188 39.0934C28.0157 39.9978 30.0639 40.4375 32.4495 40.4375C32.7199 40.4375 32.9995 40.4318 33.2815 40.4204C34.6677 40.362 35.182 39.928 35.247 38.7605C35.278 38.1638 35.3534 37.5381 35.6925 37.0044C35.9065 36.6682 36.1061 36.6682 36.1717 36.6682C36.298 36.6682 36.4546 36.7185 36.6229 36.8128C36.9246 36.9831 37.1833 37.2114 37.3954 37.4107C37.595 37.6001 37.7924 37.7914 37.99 37.9829C38.4164 38.396 38.8573 38.8231 39.3179 39.2281C40.3261 40.1154 41.4367 40.5056 42.7122 40.4209H47.4735C47.4836 40.4209 47.4938 40.4205 47.5039 40.42C47.9784 40.3929 48.3893 40.1653 48.6313 39.7955C48.931 39.3373 48.925 38.7529 48.6151 38.2317C48.2635 37.6424 47.8073 37.1389 47.4077 36.7243Z" fill="white"/>
<g filter="url(#filter0_d_39_192)">
<path d="M32 5C17.0887 5 5 17.0887 5 32C5 46.9113 17.0887 59 32 59C46.9113 59 59 46.9113 59 32C58.9817 17.096 46.9022 5.01831 32 5ZM32 56.2542C18.6043 56.2542 7.74576 45.3957 7.74576 32C7.74576 18.6043 18.6043 7.74576 32 7.74576C45.3957 7.74576 56.2542 18.6043 56.2542 32C56.2396 45.3883 45.3865 56.2396 32 56.2542Z" fill="white"/>
</g>
<defs>
<filter id="filter0_d_39_192" x="0.5" y="0.5" width="63" height="63" filterUnits="userSpaceOnUse" color-interpolation-filters="sRGB">
<feFlood flood-opacity="0" result="BackgroundImageFix"/>
<feColorMatrix in="SourceAlpha" type="matrix" values="0 0 0 0 0 0 0 0 0 0 0 0 0 0 0 0 0 0 127 0" result="hardAlpha"/>
<feOffset/>
<feGaussianBlur stdDeviation="2.25"/>
<feComposite in2="hardAlpha" operator="out"/>
<feColorMatrix type="matrix" values="0 0 0 0 0.886275 0 0 0 0 0.34902 0 0 0 0 1 0 0 0 1 0"/>
<feBlend mode="normal" in2="BackgroundImageFix" result="effect1_dropShadow_39_192"/>
<feBlend mode="normal" in="SourceGraphic" in2="effect1_dropShadow_39_192" result="shape"/>
</filter>
</defs>
</svg>
