<svg width="64" height="64" viewBox="0 0 64 64" fill="none" xmlns="http://www.w3.org/2000/svg">
<path d="M40.6267 19H45.2267L35.1769 30.0135L47 45H37.7423L30.4919 35.9105L22.1954 45H17.5923L28.3416 33.22L17 19H26.4921L33.0462 27.3079L40.6267 19ZM39.0121 42.3599H41.5612L25.1072 21.5015H22.3721L39.0121 42.3599Z" fill="white"/>
<g filter="url(#filter0_d_39_209)">
<path d="M32 5C17.0887 5 5 17.0887 5 32C5 46.9113 17.0887 59 32 59C46.9113 59 59 46.9113 59 32C58.9817 17.096 46.9022 5.01831 32 5ZM32 56.2542C18.6043 56.2542 7.74576 45.3957 7.74576 32C7.74576 18.6043 18.6043 7.74576 32 7.74576C45.3957 7.74576 56.2542 18.6043 56.2542 32C56.2396 45.3883 45.3865 56.2396 32 56.2542Z" fill="white"/>
</g>
<defs>
<filter id="filter0_d_39_209" x="0.5" y="0.5" width="63" height="63" filterUnits="userSpaceOnUse" color-interpolation-filters="sRGB">
<feFlood flood-opacity="0" result="BackgroundImageFix"/>
<feColorMatrix in="SourceAlpha" type="matrix" values="0 0 0 0 0 0 0 0 0 0 0 0 0 0 0 0 0 0 127 0" result="hardAlpha"/>
<feOffset/>
<feGaussianBlur stdDeviation="2.25"/>
<feComposite in2="hardAlpha" operator="out"/>
<feColorMatrix type="matrix" values="0 0 0 0 0.886275 0 0 0 0 0.34902 0 0 0 0 1 0 0 0 1 0"/>
<feBlend mode="normal" in2="BackgroundImageFix" result="effect1_dropShadow_39_209"/>
<feBlend mode="normal" in="SourceGraphic" in2="effect1_dropShadow_39_209" result="shape"/>
</filter>
</defs>
</svg>
